<?xml version="1.0" standalone="no"?><!DOCTYPE svg PUBLIC "-//W3C//DTD SVG 1.1//EN" "http://www.w3.org/Graphics/SVG/1.1/DTD/svg11.dtd"><svg t="1516522118168" class="icon" style="" viewBox="0 0 1024 1024" version="1.1" xmlns="http://www.w3.org/2000/svg" p-id="16559" xmlns:xlink="http://www.w3.org/1999/xlink" width="30" height="30"><defs><style type="text/css"></style></defs><path d="M956.513468 666.291039l0-422.799422c0-3.157923-0.165776-6.705726-0.629333-10.350742-0.38988-3.001357-2.828418-5.807263-4.474918-8.494465-2.426259-6.226818-7.888667-11.20418-14.07046-13.69593-8.637728-6.107091-18.054191-9.991562-20.283975-10.657734L482.809679 65.004503c-6.765077-2.066055-13.980409-1.354857-20.222577 1.915629l-165.809373 86.833671-2.739391-0.928139-0.973164 2.843768-173.383886 90.815355c-27.707039 14.519692-40.49018 24.833595-44.636616 31.988552-3.457752 4.146437-7.559163 9.41544-7.559163 15.163351l0 473.76928c0 10.657734 8.786107 19.938098 18.920932 23.14207l535.642466 168.518065c2.364861 0.718361 5.26798 1.092891 7.724938 1.092891 6.03239 0 12.063757-2.230808 16.538675-6.271844l299.840996-269.618671C951.228091 679.659511 956.513468 673.132864 956.513468 666.291039zM475.310891 94.829785l419.456281 130.715087-133.551692 84.184331L336.998779 167.263491 475.310891 94.829785zM299.367717 186.969299l428.362114 143.864572-116.082832 73.167416c-40.699957-9.743922-297.265334-77.44893-483.881592-126.934994 2.170432-1.25048 4.266164-2.447748 6.137791-3.420913L299.367717 186.969299zM98.142739 301.960263c367.872438 95.216595 466.996017 122.586966 499.417427 130.467447l11.242042 490.923986-510.660492-160.630421L98.141716 301.960263zM925.856237 663.432944 644.502291 916.40447l-11.002588-487.794715 292.355511-183.569876L925.855214 663.432944zM446.06173 567.82033c-1.960655 6.675026-8.083096 11.009751-14.71412 11.009751-1.422396 0-2.874467-0.194428-4.311189-0.621147L207.294718 513.782599c-8.128121-2.38021-12.783141-10.897188-10.402931-19.025309 2.38021-8.128121 10.867512-12.753465 19.025309-10.395768l219.741703 64.417125C443.785897 551.167045 448.44194 559.692209 446.06173 567.82033z" p-id="16560"></path></svg>