<?xml version="1.0" standalone="no"?><!DOCTYPE svg PUBLIC "-//W3C//DTD SVG 1.1//EN" "http://www.w3.org/Graphics/SVG/1.1/DTD/svg11.dtd"><svg t="1516524540774" class="icon" style="" viewBox="0 0 1024 1024" version="1.1" xmlns="http://www.w3.org/2000/svg" p-id="2113" xmlns:xlink="http://www.w3.org/1999/xlink" width="30" height="30"><defs><style type="text/css"></style></defs><path d="M871.057167 825.313845l-57.917084-0.019443c-15.187911 0-24.537859-6.388501-29.710672-11.773138-11.289114-11.713786-11.31879-26.940582-11.212366-29.893844l-0.096191-45.854351L257.484817 737.77307l0 46.606481c0 26.864858-20.765953 40.913828-41.270962 40.913828l-68.232011 0c-15.477506 0-24.953322-6.484691-30.173207-11.926634-11.270694-11.752672-11.232832-26.90272-11.106965-29.817096l-0.019443-80.631412c-8.144494-13.566994-26.555819-49.91176-26.555819-101.246939 0-58.648748 51.093678-154.10275 60.675918-171.48156 6.55223-28.461215 58.118676-231.496421 194.514135-231.496421 74.020854 0 156.89126 0.038886 227.669256 0.072655l129.400139 0.042979c110.756523 0 173.863816 183.566806 183.89017 215.130685 9.842159 15.863293 63.039755 105.421005 63.039755 187.073676 0 65.038272-16.066931 95.110171-27.269064 108.156302l0 75.207889C912.047744 812.498982 890.799814 825.313845 871.057167 825.313845zM811.904952 785.712919c0.309038 0.037862 0.714268 0.058328 1.235131 0.058328l58.022485 0.019443c0.396019-0.019443 0.887206-0.097214 1.302669-0.211824 0.028653-0.289596 0.058328-0.695848 0.058328-1.197268l0-96.629781 8.905834-3.628644c3.088338-3.241834 18.36323-22.372543 18.36323-83.10679 0-76.345806-57.656141-167.138648-58.235332-168.045297l-1.457188-2.267647-0.800225-2.576685c-16.32685-52.792367-74.54274-189.790554-146.913001-189.790554l-129.419582-0.042979c-70.768787-0.033769-153.62896-0.071631-227.650837-0.071631-111.914906 0-156.090011 201.167672-156.523893 203.193819l-0.627287 2.962471-1.485841 2.63399c-15.863293 28.119431-57.028854 110.709451-57.028854 154.662499 0 51.007721 22.560832 83.549881 22.792099 83.878362l3.76372 5.191232 0 93.638657c0.00921 0.444115 0.067538 0.907673 0.154519 1.293459 0.376577 0.058328 0.89744 0.097214 1.620917 0.097214l68.183915 0c0.424672-0.020466 1.187035-0.192382 1.746784-0.38681 0.028653-0.25071 0.048095-0.578168 0.048095-1.00284l0-86.131683 593.598436 0 0.173962 86.09382C811.741223 784.805246 811.808762 785.306666 811.904952 785.712919zM162.437068 418.308131l705.08867 0 0 39.529295-705.08867 0 0-39.529295ZM374.205169 543.562856l277.267884 0 0 39.524179-277.267884 0 0-39.524179ZM374.205169 615.702873l277.267884 0 0 39.524179-277.267884 0 0-39.524179ZM246.175237 637.992529c-40.981367 0-74.319659-33.329083-74.319659-74.319659 0-40.972157 33.339316-74.30124 74.319659-74.30124 40.972157 0 74.30124 33.329083 74.30124 74.30124C320.476477 604.663446 287.146371 637.992529 246.175237 637.992529zM246.175237 528.895809c-19.182898 0-34.795481 15.59314-34.795481 34.777061 0 19.192108 15.612583 34.795481 34.795481 34.795481 19.173688 0 34.777061-15.603373 34.777061-34.795481C280.952298 544.488948 265.348925 528.895809 246.175237 528.895809zM773.982248 637.992529c-40.9916 0-74.339102-33.329083-74.339102-74.319659 0-40.972157 33.348526-74.30124 74.339102-74.30124 40.972157 0 74.30124 33.329083 74.30124 74.30124C848.284511 604.663446 814.955428 637.992529 773.982248 637.992529zM773.982248 528.895809c-19.193131 0-34.814923 15.59314-34.814923 34.777061 0 19.192108 15.622816 34.795481 34.814923 34.795481 19.173688 0 34.777061-15.603373 34.777061-34.795481C808.760332 544.488948 793.15696 528.895809 773.982248 528.895809zM872.783485 450.551486l-11.675924-37.757952c30.695093-9.552563 60.482513-28.804023 57.935504-37.44482-2.373047-8.086166-41.715077-9.721409-80.265068-0.366344l-9.320273-38.404682c18.612916-4.519943 112.194268-24.413016 127.508046 27.616988C972.454532 416.84071 889.55445 445.369464 872.783485 450.551486zM151.214469 445.610964c-16.770965-5.182023-99.669-33.725102-84.182284-86.357833 15.304568-52.04433 108.904339-32.157397 127.508046-27.627221l-9.312086 38.409798c-38.568411-9.301853-77.91965-7.686053-80.274278 0.37146-2.547009 8.640798 27.249621 27.887141 57.954947 37.449937L151.214469 445.610964z" p-id="2114"></path></svg>