<?xml version="1.0" standalone="no"?><!DOCTYPE svg PUBLIC "-//W3C//DTD SVG 1.1//EN" "http://www.w3.org/Graphics/SVG/1.1/DTD/svg11.dtd"><svg t="1516524531155" class="icon" style="" viewBox="0 0 1024 1024" version="1.1" xmlns="http://www.w3.org/2000/svg" p-id="1869" xmlns:xlink="http://www.w3.org/1999/xlink" width="30" height="30"><defs><style type="text/css"></style></defs><path d="M769.877767 823.601854l-515.746324 0c-106.647949 0-193.356776-86.773296-193.356776-193.421244 0-106.631576 86.708827-193.356776 193.356776-193.356776 7.14677 0 14.278191 0.400113 21.537526 1.231037 0-0.415462 0-0.831948 0-1.231037 0-130.37535 105.97666-236.431827 236.335636-236.431827 130.37535 0 236.431827 106.056478 236.431827 236.431827 0 0.400113 0 0.815575 0 1.231037 7.179516-0.831948 14.309914-1.231037 21.441335-1.231037 106.663298 0 193.373149 86.7252 193.373149 193.356776 0 32.825616-8.442276 65.395406-24.431435 94.03263-5.78782 10.377348-18.851347 14.07046-29.212322 8.346085-10.360975-5.835915-14.102183-18.914792-8.266267-29.275767 12.375865-22.288632 19.010983-47.567365 19.010983-73.102948 0-95.79067-91.202165-171.70771-189.791577-145.037281-6.92369 1.902326-14.406105 0.176009-19.778462-4.52506-5.40408-4.749164-8.058536-11.879562-7.163143-18.947538 1.24741-9.449209 1.838881-17.364483 1.838881-24.846898 0-106.647949-86.789669-193.452967-193.452967-193.452967-106.647949 0-193.356776 86.805018-193.356776 193.452967 0 7.483438 0.511653 15.397688 1.759063 24.846898 0.87902 7.066953-1.759063 14.198374-7.179516 18.947538-5.372358 4.701069-12.791327 6.460132-19.763113 4.52506-98.509594-26.557866-189.791577 49.246611-189.791577 145.037281 0 82.935897 67.521836 150.474107 150.457734 150.474107l515.746324 0c11.879562 0 21.537526 9.561773 21.537526 21.441335S781.757329 823.601854 769.877767 823.601854L769.877767 823.601854z" p-id="1870"></path></svg>