<?xml version="1.0" standalone="no"?><!DOCTYPE svg PUBLIC "-//W3C//DTD SVG 1.1//EN" "http://www.w3.org/Graphics/SVG/1.1/DTD/svg11.dtd"><svg t="1517240304215" class="icon" style="" viewBox="0 0 1024 1024" version="1.1" xmlns="http://www.w3.org/2000/svg" p-id="2443" xmlns:xlink="http://www.w3.org/1999/xlink" width="30" height="30"><defs><style type="text/css"></style></defs><path d="M700.352 163.68c112.672 0 204.032 91.36 204.032 204.032 0 57.888-24.128 110.048-62.848 147.2l-329.504 331.168-335.488-337.152c-35.2-36.672-56.896-86.368-56.896-141.216 0-112.704 91.36-204.032 204.032-204.032 84.864 0 157.6 51.84 188.352 125.568 30.752-73.728 103.488-125.568 188.352-125.568zM700.352 129.568c-75.04 0-143.968 34.848-188.352 92.288-44.352-57.44-113.28-92.288-188.352-92.288-131.328 0-238.144 106.848-238.144 238.144 0 61.696 23.584 120.256 66.4 164.864l360.096 361.888 353.696-355.456c46.72-44.864 72.8-105.856 72.8-171.264 0-131.328-106.848-238.144-238.144-238.144l0 0z" p-id="2444"></path></svg>