<?xml version="1.0" standalone="no"?><!DOCTYPE svg PUBLIC "-//W3C//DTD SVG 1.1//EN" "http://www.w3.org/Graphics/SVG/1.1/DTD/svg11.dtd"><svg t="1516798696982" class="icon" style="" viewBox="0 0 1024 1024" version="1.1" xmlns="http://www.w3.org/2000/svg" p-id="12313" xmlns:xlink="http://www.w3.org/1999/xlink" width="30" height="30"><defs><style type="text/css"></style></defs><path d="M960 682.666667c-12.8 0-21.333333 8.533333-21.333333 21.333333v128c0 23.466667-17.066667 42.666667-42.666667 42.666667H128c-23.466667 0-42.666667-19.2-42.666667-42.666667v-128c0-12.8-8.533333-21.333333-21.333333-21.333333s-21.333333 8.533333-21.333333 21.333333v128c0 46.933333 36.266667 85.333333 85.333333 85.333333h768c46.933333 0 85.333333-38.4 85.333333-85.333333v-128c0-12.8-8.533333-21.333333-21.333333-21.333333z" p-id="12314" fill="#ffffff"></path><path d="M452.266667 731.733333c17.066667 17.066667 38.4 25.6 59.733333 25.6s44.8-8.533333 59.733333-25.6l215.466667-215.466666c8.533333-8.533333 8.533333-21.333333 0-29.866667s-21.333333-8.533333-29.866667 0L541.866667 701.866667c-2.133333 2.133333-6.4 4.266667-8.533334 6.4V106.666667c0-12.8-8.533333-21.333333-21.333333-21.333334s-21.333333 8.533333-21.333333 21.333334v601.6c-2.133333-2.133333-6.4-4.266667-8.533334-6.4L266.666667 486.4c-8.533333-8.533333-21.333333-8.533333-29.866667 0s-8.533333 21.333333 0 29.866667l215.466667 215.466666z" p-id="12315" fill="#ffffff"></path></svg>