<?xml version="1.0" standalone="no"?><!DOCTYPE svg PUBLIC "-//W3C//DTD SVG 1.1//EN" "http://www.w3.org/Graphics/SVG/1.1/DTD/svg11.dtd"><svg t="1516798719303" class="icon" style="" viewBox="0 0 1024 1024" version="1.1" xmlns="http://www.w3.org/2000/svg" p-id="12630" xmlns:xlink="http://www.w3.org/1999/xlink" width="30" height="30"><defs><style type="text/css"></style></defs><path d="M841.074 175.576c13.536 0 30.991 18.864 31.07 38.94l-2.63 413.476-0.001 0.356c0 9.859-3.379 18.928-9.514 25.535-3.586 3.862-9.628 8.465-18.054 8.465h-0.139l-262.49 0.652a56.01 56.01 0 0 0-29.164 8.278L351.267 793.401l10.219-66.248a56 56 0 0 0-55.315-64.538l-129.379-0.069c-2.165 0-8.752 0-14.952-7.124-5.607-6.442-8.822-16.238-8.822-26.876v-0.157l-1.161-413.594c0.026-21.128 15.169-39.22 27.568-39.22h661.649m0-55.999h-661.65c-46.153 0-83.568 45.569-83.568 95.274l1.162 413.697c0 49.706 33.621 90 79.774 90l129.349 0.069-28.662 185.808L579.455 719l262.489-0.652c46.153 0 83.568-40.294 83.568-90l2.632-413.697c0-49.705-40.916-95.075-87.07-95.075z" fill="#ffffff" p-id="12631"></path><path d="M285.709 415m-60 0a60 60 0 1 0 120 0 60 60 0 1 0-120 0Z" fill="#ffffff" p-id="12632"></path><path d="M512 415m-60 0a60 60 0 1 0 120 0 60 60 0 1 0-120 0Z" fill="#ffffff" p-id="12633"></path><path d="M738.291 415m-60 0a60 60 0 1 0 120 0 60 60 0 1 0-120 0Z" fill="#ffffff" p-id="12634"></path></svg>