<?xml version="1.0" standalone="no"?><!DOCTYPE svg PUBLIC "-//W3C//DTD SVG 1.1//EN" "http://www.w3.org/Graphics/SVG/1.1/DTD/svg11.dtd"><svg t="1516522153378" class="icon" style="" viewBox="0 0 1024 1024" version="1.1" xmlns="http://www.w3.org/2000/svg" p-id="17040" xmlns:xlink="http://www.w3.org/1999/xlink" width="30" height="30"><defs><style type="text/css"></style></defs><path d="M860.992 814.464H162.88A163.136 163.136 0 0 1 0 651.584V162.88A163.072 163.072 0 0 1 162.88 0h698.112a163.136 163.136 0 0 1 162.88 162.88v488.64a163.2 163.2 0 0 1-162.88 162.944zM162.88 46.592A116.48 116.48 0 0 0 46.528 162.944v488.64a116.48 116.48 0 0 0 116.352 116.352h698.112a116.352 116.352 0 0 0 116.288-116.352V162.88A116.48 116.48 0 0 0 860.992 46.528H162.88z" fill="#4D4D4D" p-id="17041"></path><path d="M511.936 443.84c-21.376 0-42.752-7.36-60.224-22.144L54.784 87.68a23.36 23.36 0 0 1 30.08-35.712l396.928 334.144c17.472 14.784 42.88 14.784 60.352 0L939.072 51.968a23.296 23.296 0 0 1 30.016 35.648l-396.992 334.08c-17.408 14.72-38.784 22.144-60.16 22.144z" fill="#4D4D4D" p-id="17042"></path></svg>