<?xml version="1.0" standalone="no"?><!DOCTYPE svg PUBLIC "-//W3C//DTD SVG 1.1//EN" "http://www.w3.org/Graphics/SVG/1.1/DTD/svg11.dtd"><svg t="1516524428000" class="icon" style="" viewBox="0 0 1024 1024" version="1.1" xmlns="http://www.w3.org/2000/svg" p-id="1626" xmlns:xlink="http://www.w3.org/1999/xlink" width="30" height="30"><defs><style type="text/css"></style></defs><path d="M493.72929934 968.74712747L493.72929934 767.91205205c0-0.23169479 0-0.46338958 0.01746489-0.69624832-152.93830485-9.42031075-274.06574137-136.39949426-274.06574137-291.85384106l0-7.15459357 0.05355748 0c-0.03609259-0.62406201-0.05355747-1.24812402-0.05355748-1.88150101 0-15.13816405 12.25653362-27.40517661 27.40401266-27.4051766 15.14864299 0 27.40517661 12.26701255 27.40517661 27.4051766 0 0.63337699-0.01862883 1.25743901-0.05355748 1.88150101l0.05355748 0 0 9.64385565c0 131.29755307 106.33623097 237.55344782 237.50804024 237.55344782 131.19043811 0 237.50804025-106.35485981 237.50804025-237.55344782l0-9.64385565 0.05355748 0c-0.03492864-0.62406201-0.05355747-1.24812402-0.05355748-1.88150101 0-15.13816405 12.25653362-27.40517661 27.40517661-27.4051766 15.14747904 0 27.40401266 12.26701255 27.40401266 27.4051766 0 0.63337699-0.01746489 1.25743901-0.05355748 1.88150101l0.05355748 0 0 7.15459357c0 155.36586069-121.09134279 282.43469426-274.06574138 291.85384106 0.01746489 0.23169479 0.01746489 0.46338958 0.0174649 0.69624832l0 200.83507542 100.39599786 0c15.18357163 0 27.49366386 12.1680475 27.49366386 27.40401266 0 15.13001415-12.18551239 27.40401266-27.49366386 27.40401265l-237.32990293 0c-15.18357163 0-27.49366386-12.16688355-27.49366386-27.40401265 0-15.12885021 12.18551239-27.40401266 27.49366386-27.40401266L493.72929934 968.74712747z" p-id="1627"></path><path d="M511.99941746 0.44368327c-100.93040981 0-182.69885099 81.83014969-182.69885099 182.76987335l0 292.17518592c0 100.79651613 81.8045349 182.76987335 182.69885099 182.76987335 100.93040981 0 182.69885099-81.83014969 182.69885099-182.76987335L694.69826845 183.21355549C694.69826845 82.4170405 612.89373469 0.44368327 511.99941746 0.44368327zM639.88907918 475.54009998c0 70.58305934-57.39741753 127.80932551-127.88966172 127.80932551-70.63545173 0-127.88966173-57.10285141-127.88966173-127.80932551L384.10975687 183.06219805c0-70.58189426 57.39741753-127.80816043 127.88966172-127.80816043 70.63545173 0 127.88966173 57.10168633 127.88966173 127.80816043L639.88907918 475.54009998z" p-id="1628"></path></svg>