<?xml version="1.0" standalone="no"?><!DOCTYPE svg PUBLIC "-//W3C//DTD SVG 1.1//EN" "http://www.w3.org/Graphics/SVG/1.1/DTD/svg11.dtd"><svg t="1516524681551" class="icon" style="" viewBox="0 0 1024 1024" version="1.1" xmlns="http://www.w3.org/2000/svg" p-id="2355" xmlns:xlink="http://www.w3.org/1999/xlink" width="30" height="30"><defs><style type="text/css"></style></defs><path d="M359.7 932h-159c-60 0-108.7-48.7-108.7-108.7v-159c0-12.7 10.4-23.1 23.1-23.1s23.1 10.4 23.1 23.1v159c0 34.5 28 62.5 62.5 62.5h159c12.7 0 23.1 10.4 23.1 23.1 0 12.7-10.4 23.1-23.1 23.1zM823.3 932h-159c-12.7 0-23.1-10.4-23.1-23.1 0-12.7 10.4-23.1 23.1-23.1h159c34.5 0 62.5-28 62.5-62.5v-159c0-12.7 10.4-23.1 23.1-23.1s23.1 10.4 23.1 23.1v159c0 60-48.7 108.7-108.7 108.7zM115.1 382.8c-12.7 0-23.1-10.4-23.1-23.1v-159C92 140.7 140.7 92 200.7 92h159c12.7 0 23.1 10.4 23.1 23.1s-10.4 23-23.1 23h-159c-34.5 0-62.5 28-62.5 62.5v159c0 12.8-10.4 23.2-23.1 23.2zM908.9 382.8c-12.7 0-23.1-10.4-23.1-23.1v-159c0-34.5-28-62.5-62.5-62.5h-159c-12.7 0-23.1-10.4-23.1-23.1S651.6 92 664.3 92h159c60 0 108.7 48.7 108.7 108.7v159c0 12.7-10.4 23.1-23.1 23.1z" p-id="2356"></path><path d="M908.9 525.9H115.1c-7.6 0-13.9-6.2-13.9-13.9 0-7.6 6.2-13.9 13.9-13.9h793.8c7.6 0 13.9 6.2 13.9 13.9-0.1 7.6-6.2 13.9-13.9 13.9z" p-id="2357"></path></svg>