<?xml version="1.0" standalone="no"?><!DOCTYPE svg PUBLIC "-//W3C//DTD SVG 1.1//EN" "http://www.w3.org/Graphics/SVG/1.1/DTD/svg11.dtd"><svg t="1516522139120" class="icon" style="" viewBox="0 0 1024 1024" version="1.1" xmlns="http://www.w3.org/2000/svg" p-id="16919" xmlns:xlink="http://www.w3.org/1999/xlink" width="30" height="30"><defs><style type="text/css"></style></defs><path d="M512.268258 118.065241L853.425824 315.032108v393.93476L512.268258 905.934759 171.110692 708.967892V315.032108L512.268258 118.065241m0-53.621899L124.672373 288.221671v447.556658l387.594861 223.778329 387.595885-223.778329V288.221671L512.268258 64.443342z" fill="" p-id="16920"></path><path d="M296.883741 384.940951l57.55669 202.715983c6.516006-25.294063 14.117331-53.659782 22.804998-85.096133s19.78556-71.001328 33.302894-118.705169h49.592909L386.294527 640.146416h-64.796583c-14.722447-51.810645-28.359576-98.683091-40.905242-140.617339-12.550786-41.929128-24.253796-80.12517-35.113124-114.588126h51.404163zM492.357784 384.217064h46.696338v255.928328h-46.696338V384.217064zM587.922121 384.217064h100.633593c26.301566 0 47.964932 7.629993 64.97781 22.88998 17.013902 15.259987 25.521366 35.740765 25.521366 61.453597 0 15.379781-3.512951 29.315885-10.526565 41.810357-9.434079 16.583871-22.743565 28.235686-39.914122 34.965684-13.066825 5.045707-31.092326 7.56856-54.078551 7.568561H635.342346v87.240149h-47.420225V384.217064z m96.115187 129.23071c14.049754 0 25.191675-4.581887 33.426784-13.755899 8.23511-9.168893 12.358296-20.870878 12.358296-35.113124 0-13.269554-4.728302-23.224791-14.174669-29.864687-9.446366-6.634777-20.955861-9.955237-34.519269-9.955237h-45.787128v88.687923h48.695986z" fill="" p-id="16921"></path></svg>